<?xml version="1.0" standalone="no"?>
<!DOCTYPE svg PUBLIC "-//W3C//DTD SVG 20010904//EN"
 "http://www.w3.org/TR/2001/REC-SVG-20010904/DTD/svg10.dtd">
<svg version="1.0" xmlns="http://www.w3.org/2000/svg"
 width="1024.000000pt" height="1024.000000pt" viewBox="0 0 1024.000000 1024.000000"
 preserveAspectRatio="xMidYMid meet">

<g transform="translate(0.000000,1024.000000) scale(0.100000,-0.100000)"
fill="#000000" stroke="none">
<path d="M4995 7490 c-250 -6 -267 -10 -351 -96 -52 -54 -72 -106 -108 -279
-15 -71 -32 -141 -39 -154 -12 -23 -161 -99 -199 -100 -9 -1 -70 31 -135 71
-180 109 -215 123 -303 123 -133 0 -145 -8 -402 -263 -259 -257 -271 -275
-272 -402 -1 -85 13 -122 107 -270 29 -47 64 -104 77 -127 l24 -43 -39 -96
c-22 -53 -45 -102 -51 -109 -7 -6 -83 -26 -171 -44 -186 -38 -246 -64 -308
-133 -73 -81 -77 -105 -73 -465 l3 -308 28 -57 c54 -111 114 -145 344 -194 92
-19 173 -41 179 -47 6 -7 28 -54 49 -105 45 -109 50 -87 -66 -272 -115 -184
-128 -237 -88 -366 21 -69 21 -69 253 -300 259 -260 273 -269 408 -268 80 0
111 12 284 116 73 43 140 78 150 78 11 0 61 -20 113 -43 l94 -43 33 -155 c19
-85 41 -174 50 -198 23 -61 85 -125 153 -158 l56 -28 320 0 320 0 57 27 c74
34 142 106 164 172 9 27 31 115 49 194 18 79 36 147 41 152 14 13 182 80 201
80 9 0 73 -34 142 -75 178 -105 212 -119 297 -119 122 -1 163 26 406 272 243
244 263 275 262 402 -1 86 -13 115 -119 285 -98 155 -95 139 -45 255 23 55 46
102 50 105 4 2 74 19 156 36 192 40 243 60 299 115 88 85 90 94 93 450 3 294
2 313 -18 366 -26 69 -86 140 -144 168 -25 11 -116 37 -203 56 -87 19 -165 37
-174 40 -15 4 -80 139 -94 194 -5 20 10 52 66 145 113 189 129 228 129 310 0
131 -8 143 -255 393 -244 247 -276 270 -389 279 -86 7 -132 -10 -306 -112 -80
-47 -148 -85 -153 -85 -25 0 -207 84 -212 98 -3 9 -20 82 -36 162 -33 158 -56
220 -97 263 -37 40 -100 82 -142 95 -46 15 -195 19 -465 12z m435 -237 c27
-26 34 -46 73 -225 24 -108 51 -208 60 -221 9 -15 50 -38 109 -62 51 -21 129
-53 172 -72 102 -43 146 -43 212 -1 167 106 283 171 316 176 26 3 46 -1 66
-14 16 -11 113 -105 216 -211 173 -178 186 -194 186 -228 0 -29 -23 -76 -105
-214 -77 -130 -105 -187 -105 -211 0 -48 139 -389 166 -406 12 -8 104 -33 205
-55 101 -22 198 -44 216 -50 61 -20 63 -28 63 -342 l0 -284 -24 -22 c-19 -18
-73 -34 -228 -71 -112 -26 -214 -52 -226 -59 -26 -14 -43 -45 -81 -149 -16
-43 -43 -109 -60 -147 -48 -106 -46 -114 74 -320 85 -146 105 -187 105 -219 0
-38 -7 -47 -208 -248 -194 -195 -209 -208 -244 -208 -28 0 -71 21 -194 96
-202 123 -204 124 -234 124 -14 0 -52 -12 -85 -26 -33 -14 -100 -41 -149 -60
-125 -48 -149 -61 -164 -84 -7 -12 -33 -112 -57 -223 -38 -168 -49 -206 -70
-227 l-25 -25 -285 -3 -284 -3 -30 28 c-28 26 -34 46 -76 228 -26 115 -53 211
-63 225 -12 15 -51 38 -103 58 -46 19 -127 52 -179 74 -67 28 -103 38 -125 35
-17 -3 -110 -53 -206 -111 -131 -79 -184 -106 -209 -106 -31 0 -53 19 -233
198 -109 108 -205 210 -214 226 -9 17 -12 38 -8 54 3 14 53 104 111 200 77
129 104 184 104 209 0 18 -20 79 -43 136 -24 56 -56 135 -72 175 -15 42 -36
79 -49 87 -12 8 -116 37 -231 64 -182 42 -212 52 -232 75 -23 27 -23 29 -23
310 0 273 1 283 21 305 28 30 38 33 255 81 104 22 199 47 210 55 13 8 34 46
49 87 15 40 47 119 71 175 57 132 57 154 -4 257 -154 259 -162 274 -162 311 0
35 12 49 187 229 103 105 196 199 207 208 44 37 82 25 269 -87 142 -85 183
-105 214 -105 54 1 372 130 395 161 10 14 36 105 58 209 50 227 47 218 78 247
25 23 25 23 308 23 l284 0 30 -27z"/>
<path d="M5035 6263 c-257 -20 -493 -119 -682 -284 -135 -117 -265 -317 -321
-489 -131 -403 -34 -854 248 -1154 148 -158 351 -274 580 -332 61 -15 111 -19
265 -19 177 0 197 2 289 28 256 71 494 235 638 437 68 96 144 261 174 375 30
118 42 281 31 413 -46 538 -469 964 -1017 1022 -93 9 -123 10 -205 3z m355
-238 c332 -107 561 -350 646 -685 25 -100 26 -333 1 -434 -74 -295 -284 -543
-554 -653 -322 -132 -684 -81 -951 133 -179 143 -309 365 -343 589 -16 99 -6
293 20 387 85 314 314 556 622 657 108 35 147 40 314 37 142 -3 169 -6 245
-31z"/>
</g>
</svg>
